<svg width="32" height="32" viewBox="0 0 32 32" fill="none" xmlns="http://www.w3.org/2000/svg">
<path d="M22 17H17V15H22V17Z" fill="white"/>
<path d="M25 24H20V22H25V24Z" fill="white"/>
<path d="M24 20H19V18H24V20Z" fill="white"/>
<path d="M14.5582 16.7857C14.5519 16.0926 14.3518 15.4127 13.9773 14.8122C13.6028 14.2116 13.0667 13.7106 12.421 13.358L19 2.82143L17.4614 2L10.7275 12.7821C9.9009 12.6114 9.04118 12.6349 8.22697 12.8506C7.41277 13.0663 6.67008 13.4671 6.06686 14.0166C2.73926 16.9829 2.99695 23.9174 3.00912 24.2114C3.01831 24.4235 3.116 24.6241 3.28171 24.7711C3.44742 24.9182 3.66829 25.0002 3.898 25H17.2233C17.4099 25 17.5917 24.9458 17.7431 24.845C17.8944 24.7441 18.0076 24.6019 18.0666 24.4383C18.1256 24.2748 18.1274 24.0982 18.0718 23.9336C18.0161 23.7691 17.9059 23.6249 17.7566 23.5214C14.6103 21.3396 14.5582 16.8298 14.5582 16.7857ZM10.049 14.319C10.7605 14.3262 11.4415 14.5867 11.9504 15.0461C12.4594 15.5055 12.7571 16.1286 12.7815 16.7857C12.7815 16.817 12.7832 16.9566 12.7964 17.1708L7.55261 15.0157C7.898 14.7525 8.29657 14.5554 8.72513 14.4358C9.1537 14.3162 9.60371 14.2765 10.049 14.319ZM13.1773 23.3571C12.467 22.6885 12.0143 21.8226 11.889 20.8929H10.1112C10.175 21.7671 10.4706 22.6134 10.972 23.3571H8.99579C8.63021 22.2911 8.40777 21.1876 8.33349 20.0714H6.55574C6.61312 21.1843 6.81157 22.287 7.14702 23.3571H4.77799C4.80554 21.8487 5.03576 18.5172 6.38036 16.3317L13.0763 19.0835C13.3983 20.6272 14.0845 22.0864 15.0861 23.3571H13.1773Z" fill="white"/>
</svg>
