<svg width="32" height="32" viewBox="0 0 32 32" fill="none" xmlns="http://www.w3.org/2000/svg">
<g clip-path="url(#clip0_15_2)">
<path d="M26 20H20V18H26V20Z" fill="white"/>
<path d="M30 28H24V26H30V28Z" fill="white"/>
<path d="M28 24H22V22H28V24Z" fill="white"/>
<path d="M17.0029 20C16.9958 19.1562 16.7707 18.3286 16.3494 17.5974C15.9281 16.8663 15.325 16.2564 14.5985 15.8271L22 3L20.2691 2L12.6933 15.126C11.7634 14.9182 10.7962 14.9469 9.88019 15.2094C8.9642 15.472 8.12866 15.96 7.45002 16.6289C3.70642 20.24 3.99632 28.6821 4.01002 29.04C4.02036 29.2982 4.13026 29.5424 4.31669 29.7214C4.50312 29.9004 4.75159 30.0002 5.01002 30H20.0012C20.2111 30 20.4157 29.934 20.5859 29.8112C20.7562 29.6885 20.8835 29.5153 20.9499 29.3162C21.0163 29.1171 21.0183 28.9022 20.9557 28.7018C20.8932 28.5015 20.7691 28.3259 20.6012 28.2C17.0615 25.5439 17.0029 20.0537 17.0029 20ZM11.93 16.9971C12.7304 17.0059 13.4966 17.3229 14.0691 17.8822C14.6417 18.4415 14.9766 19.2001 15.0041 20C15.0041 20.0381 15.006 20.208 15.0209 20.4688L9.12152 17.8452C9.51009 17.5248 9.95848 17.2848 10.4406 17.1392C10.9228 16.9936 11.429 16.9453 11.93 16.9971ZM15.4494 28C14.6503 27.186 14.141 26.1319 14 25H12C12.0717 26.0643 12.4043 27.0946 12.9684 28H10.7451C10.3338 26.7022 10.0836 25.3588 10 24H8.00002C8.06458 25.3548 8.28784 26.6973 8.66522 28H6.00002C6.03102 26.1636 6.29002 22.1079 7.80272 19.4473L15.3357 22.7973C15.698 24.6766 16.47 26.4529 17.5968 28H15.4494Z" fill="white"/>
</g>
<defs>
<clipPath id="clip0_15_2">
<rect width="32" height="32" fill="white"/>
</clipPath>
</defs>
</svg>
